<?xml version="1.0" encoding="UTF-8"?><svg id="b" xmlns="http://www.w3.org/2000/svg" viewBox="0 0 449.2 127.35"><defs><style>.h{fill:#66562b;}.i{fill:#476730;}.j{fill:#fff;}.k{fill:#157053;}.l{fill:#e83d25;}.m{fill:#98ca3c;}.n{fill:#ef9f20;}</style></defs><g id="c"><g id="d"><g id="e"><path class="i" d="M439.45,12.58c-5.26-1.97-10.37-3.91-15.51-5.88-5.08-1.97-10.19-3.9-15.36-5.84-2.98-1.12-6.44-1.12-9.73,0-5,1.7-10.09,3.43-15.21,5.13-6.34,2.12-12.71,4.28-18.96,6.43-2.04.72-3.99,1.87-5.61,3.36-2.88,2.64-4.65,6.1-5.03,9.78-2.94,29.21-2.5,58.78,1.27,87.9.99,7.61,8.1,13.81,15.82,13.82l65.01.07c3.39,0,6.57-1.18,8.95-3.36,3.13-2.87,4.58-7.07,3.99-11.54-3.67-28.45-4.11-57.33-1.23-85.91.61-6.25-2.75-11.86-8.4-13.94ZM443.6,26.1c-2.89,28.88-2.47,58.06,1.28,86.9.4,3.14-.66,6.01-2.66,7.84-1.53,1.4-3.64,2.24-6.05,2.26-21.71-.02-43.36-.05-65.01-.07-5.65,0-10.94-4.54-11.63-10.12-3.77-28.87-4.17-58.02-1.28-86.96.27-2.66,1.64-5.18,3.67-7.05,1.19-1.09,2.58-1.96,4.16-2.49,11.19-3.86,22.86-7.7,34.11-11.56,2.35-.77,4.81-.78,6.91,0,10.4,3.88,20.41,7.77,30.84,11.69,3.87,1.46,6.1,5.28,5.65,9.56Z"/><path class="j" d="M437.95,16.54c-10.43-3.91-20.44-7.81-30.84-11.69-2.1-.78-4.56-.77-6.91,0-11.25,3.86-22.92,7.7-34.11,11.56-1.58.53-2.97,1.4-4.16,2.49-2.03,1.86-3.41,4.38-3.67,7.05-2.9,28.94-2.5,58.09,1.28,86.96.69,5.59,5.98,10.11,11.63,10.12,21.65.02,43.3.04,65.01.07,2.4-.01,4.51-.85,6.05-2.26,2-1.83,3.06-4.7,2.66-7.84-3.75-28.84-4.17-58.02-1.28-86.9.46-4.27-1.78-8.1-5.65-9.56ZM407.01,16.68c.03.09.11.31.09.6.05.12.05.3.04.54.02.21-.02.42-.03.66-.24,2-1.5,3.27-2,3.73-1.06.97-2.5,1.6-4,1.6-2.94-.01-5.09-2.42-4.72-5.34.18-1.43.9-2.72,1.96-3.7.31-.29,1.88-1.72,4.07-1.65.12,0,.42.02.84.1.06,0,.15.04.24.07.12,0,.27.04.45.11.47.14,1.06.41,1.58.91.12.07.26.22.38.35.69.75.98,1.57,1.11,2.03Z"/><path class="i" d="M407.01,16.68c.04.17.21.87.1,1.81-.23,2-1.51,3.28-2,3.73-1.06.97-2.5,1.6-4,1.6-2.94-.01-5.09-2.42-4.72-5.34.18-1.43.9-2.72,1.96-3.7.3-.28,1.86-1.72,4.07-1.65.14,0,.45.02.84.1.43.09,1.47.31,2.41,1.19.88.82,1.21,1.79,1.34,2.28Z"/><path class="i" d="M380.01,86.24c.18,3.09.4,6.18.65,9.26-.9,0-1.8,0-2.69,0-.38-4.57-.68-9.16-.88-13.74.68,0,1.36,0,2.04,0,2.56,3.07,5.17,6.14,7.81,9.21-.22-3.07-.39-6.14-.53-9.21.9,0,1.8,0,2.69,0,.2,4.58.5,9.16.88,13.74-.67,0-1.35,0-2.02,0-2.69-3.09-5.34-6.17-7.95-9.26Z"/><path class="i" d="M399.56,81.55c4.21,0,7.83,3.18,8.08,7.09.25,3.9-2.97,7.07-7.17,7.08-4.21,0-7.98-3.17-8.23-7.08-.25-3.91,3.11-7.1,7.32-7.09ZM400.28,93.44c2.71,0,4.8-2.04,4.62-4.81-.18-2.77-2.52-4.81-5.24-4.81-2.71,0-4.87,2.04-4.69,4.81.18,2.77,2.59,4.81,5.31,4.81Z"/><path class="i" d="M412.94,86.24c.18,3.09.4,6.18.65,9.26-.9,0-1.8,0-2.69,0-.38-4.57-.68-9.16-.88-13.74.68,0,1.36,0,2.04,0,2.56,3.07,5.17,6.14,7.81,9.21-.22-3.07-.39-6.14-.53-9.21.9,0,1.8,0,2.69,0,.2,4.58.5,9.16.88,13.74-.67,0-1.35,0-2.02,0-2.69-3.09-5.34-6.17-7.95-9.26Z"/><path class="i" d="M379.06,107.62c.3,2.56,2.49,4.75,5.77,4.75,1.12,0,2.16-.24,3-.7-.1-.8-.2-1.59-.3-2.39h-3.93c-.08-.66-.16-1.33-.24-2,2.14,0,4.28,0,6.42,0,.21,1.79.43,3.57.67,5.36-1.81,1.71-3.94,1.99-5.35,1.99-4.54,0-8.34-3.17-8.79-7.04-.46-3.88,2.51-7.09,7.08-7.09,2.15,0,3.84.55,5.51,1.65-.34.63-.68,1.25-1.02,1.88-1.55-.9-2.83-1.28-4.2-1.28-3.3,0-4.91,2.37-4.61,4.85Z"/><path class="i" d="M400.78,114.27c-1.83-3.13-3.62-6.26-5.37-9.4.06,3.19.16,6.38.3,9.56-.9,0-1.8,0-2.69,0-.17-4.56-.26-9.12-.25-13.69.94,0,1.88,0,2.82,0,1.84,3.36,3.73,6.72,5.66,10.08,1.07-3.36,2.19-6.72,3.36-10.08.94,0,1.88,0,2.82,0,.91,4.57,1.92,9.14,3.01,13.69-.9,0-1.8,0-2.69,0-.74-3.18-1.44-6.37-2.09-9.56-1.06,3.14-2.07,6.27-3.04,9.4-.61,0-1.22,0-1.83,0Z"/><path class="i" d="M418.59,100.51c4.21,0,8,3.17,8.46,7.07.46,3.89-2.58,7.06-6.79,7.06-4.21,0-8.15-3.17-8.61-7.06-.46-3.9,2.73-7.06,6.94-7.07ZM419.95,112.37c2.71,0,4.69-2.04,4.36-4.79-.33-2.76-2.78-4.8-5.5-4.79-2.71,0-4.76,2.04-4.43,4.79.32,2.76,2.85,4.79,5.57,4.79Z"/><path class="h" d="M406.86,36.16c-1.14.27-2.19.81-3.09,1.49-.1.08-.23.2-.3.31-.13-.89-.42-1.84-.95-2.74-.99-1.75-2.43-2.73-3.66-3.33-.24,2.02-1.04,4.73-3.15,7.21l-.05.07c-.42-.52-.94-.96-1.48-1.31-.43-.28-.91-.54-1.43-.68.1-.08.2-.23.32-.35,2.53-2.96,2.37-6.4,2.32-7.09-.03-.42.07-.81.3-1.17.14-.21.31-.4.5-.54.06-.01.1-.08.16-.1.1-.08.25-.14.46-.16.02-.04.05-.07.14-.06h.06s.02-.05.02-.05l.04.02c.14-.06.29-.06.42-.03.06-.01.09,0,.15,0,1.31.24,5.65,1.34,8.08,5.64.54.96.91,1.95,1.13,2.86Z"/><path class="m" d="M426.35,67.49c-2.75,2.06-6.09,3.08-9.34,3.1-2.92-.02-5.8-.88-8.04-2.58-2.56-1.91-3.7-4.52-4.08-5.32-1.01-2.27-1.02-3.89-1.03-5.27,0-.71.02-1.35-.11-2.25-.28-2.15-1.06-3.67-1.8-5.11-.99-2.06-2.27-4.61-1.18-7.94.52-1.74,1.45-3.1,2.7-4.17.07-.11.2-.23.3-.31.9-.68,1.95-1.21,3.09-1.49.61-.16,1.26-.3,1.93-.32,3.42-.21,5.53,1.46,7.41,2.93,1.3,1.04,2.65,2.07,4.68,2.93.93.35,1.65.57,2.34.76,1.36.32,2.86.74,4.65,2.26,2.02,1.71,3.45,3.8,4.2,6.16,1.81,5.72-.56,12.73-5.71,16.62Z"/><path class="m" d="M390.44,69.56c-2.37,1.95-5.48,2.92-8.61,2.92-3.07-.02-6.2-.88-8.86-2.71-5.45-3.68-8.12-10.72-6.12-16.3,1.1-3.03,3.21-4.95,3.93-5.59,1.85-1.68,3.36-2.22,4.69-2.72.66-.23,1.31-.46,2.08-.87,1.96-1,3.19-2.28,4.38-3.48,1.66-1.7,3.79-3.82,7.25-4.1,1.31-.06,2.53.07,3.57.49.52.14,1.01.4,1.43.68.53.35,1.06.79,1.48,1.31.68.74,1.19,1.68,1.6,2.76,1.12,3.1.19,5.79-.62,8.14-.58,1.6-1.14,3.25-1.3,5.52-.06,1.02-.01,1.81.04,2.51.09,1.42.18,3-.65,5.29-.91,2.49-2.35,4.64-4.3,6.16Z"/></g><g id="f"><path class="i" d="M263.34,12.55c-5.26-1.97-10.37-3.9-15.51-5.86-5.08-1.96-10.19-3.89-15.37-5.82-2.99-1.12-6.44-1.12-9.73,0-5,1.71-10.09,3.44-15.21,5.14-6.34,2.13-12.71,4.29-18.95,6.45-2.04.72-3.98,1.87-5.61,3.36-2.88,2.64-4.65,6.11-5.01,9.78-2.9,29.21-2.43,58.78,1.37,87.9,1,7.61,8.12,13.8,15.83,13.8h65.01c3.39-.01,6.57-1.2,8.94-3.38,3.13-2.87,4.57-7.07,3.98-11.54-3.71-28.45-4.18-57.33-1.33-85.91.6-6.25-2.77-11.86-8.41-13.93ZM267.51,26.06c-2.86,28.89-2.4,58.06,1.38,86.9.41,3.14-.65,6.01-2.65,7.84-1.53,1.41-3.64,2.25-6.04,2.26-21.71,0-43.36,0-65.01,0-5.65,0-10.95-4.52-11.64-10.11-3.81-28.87-4.24-58.02-1.38-86.97.26-2.66,1.63-5.18,3.67-7.05,1.19-1.09,2.58-1.96,4.16-2.49,11.19-3.87,22.85-7.73,34.1-11.6,2.35-.77,4.81-.78,6.91,0,10.4,3.87,20.42,7.75,30.85,11.65,3.87,1.46,6.11,5.28,5.66,9.55Z"/><path class="j" d="M261.85,16.51c-10.43-3.9-20.45-7.78-30.85-11.65-2.1-.78-4.56-.77-6.91,0-11.25,3.87-22.91,7.73-34.1,11.6-1.58.53-2.97,1.4-4.16,2.49-2.03,1.87-3.4,4.39-3.67,7.05-2.86,28.95-2.43,58.09,1.38,86.97.69,5.59,5.99,10.11,11.64,10.11,21.65,0,43.3,0,65.01,0,2.4-.02,4.51-.86,6.04-2.26,2-1.84,3.05-4.7,2.65-7.84-3.78-28.84-4.24-58.02-1.38-86.9.45-4.28-1.79-8.09-5.66-9.55ZM230.91,16.69c.03.09.11.31.09.6.05.12.05.3.04.54.02.21-.02.42-.03.66-.24,2-1.49,3.27-1.99,3.73-1.06.98-2.5,1.6-4,1.6-2.94,0-5.09-2.41-4.73-5.34.18-1.43.9-2.72,1.96-3.7.31-.29,1.88-1.72,4.07-1.66.12,0,.42.02.84.1.06,0,.15.04.24.07.12,0,.27.04.45.11.47.14,1.06.41,1.58.91.12.07.26.22.38.35.69.75.98,1.57,1.11,2.03Z"/><path class="i" d="M230.91,16.69c.04.17.21.87.1,1.81-.23,2-1.51,3.28-1.99,3.73-1.06.98-2.5,1.6-4,1.6-2.94,0-5.09-2.41-4.73-5.34.18-1.43.9-2.72,1.96-3.7.3-.28,1.86-1.72,4.07-1.66.14,0,.45.02.84.1.43.09,1.47.31,2.41,1.19.89.82,1.22,1.78,1.34,2.28Z"/><path class="n" d="M230.54,68c-3.06,1.05-6.2,1.55-9.3,1.58-12.14,0-23.77-7.69-27.55-19.88-.29-1.02-.12-2.16.52-3.1.64-.93,1.66-1.56,2.76-1.64,8.57-.73,17.11-2.52,25.35-5.38,7.77-2.64,15.34-6.22,22.53-10.56.98-.59,2.12-.71,3.14-.37,1.02.39,1.78,1.19,2.03,2.26,3.89,15.25-4.36,31.93-19.49,37.09Z"/><path class="i" d="M206.91,90.33c.35,1.48,1.29,3.24,2.85,3.24.63,0,1.2-.26,1.57-.61.36.58.72,1.16,1.08,1.74-.79.69-1.61,1.08-2.86,1.07-3.48,0-4.85-3.71-5.1-5.29-.83,0-1.65,0-2.48,0,.12,1.7.25,3.39.39,5.08-.9,0-1.8,0-2.69,0-.39-4.61-.69-9.23-.89-13.85,2.12,0,4.24,0,6.35,0,2.93,0,4.68,2.07,4.82,4.45.11,2.02-1.01,3.67-3.04,4.18ZM205.08,88.45c1.39,0,2.21-.96,2.13-2.32-.08-1.34-1.03-2.34-2.4-2.33-1.08,0-2.16,0-3.24,0,.08,1.55.17,3.1.27,4.65,1.08,0,2.16,0,3.24,0Z"/><path class="i" d="M214.32,95.54c-.39-4.61-.69-9.23-.89-13.85,3.19,0,6.38,0,9.57,0,.03.68.06,1.36.1,2.04-2.29,0-4.59,0-6.88,0,.07,1.34.14,2.68.23,4.02,2,0,4,0,6,0,.04.67.09,1.35.13,2.02-2,0-4,0-6,0,.08,1.25.18,2.5.27,3.76,2.29,0,4.59,0,6.88,0,.05.67.11,1.35.16,2.02-3.19,0-6.38,0-9.57,0Z"/><path class="i" d="M225.11,95.53c1.51-4.61,3.1-9.23,4.79-13.85.93,0,1.86,0,2.8,0,2.12,4.62,4.32,9.23,6.62,13.84-.92,0-1.84,0-2.76,0-.45-.9-.89-1.81-1.33-2.71-2.16,0-4.32,0-6.48,0-.29.9-.57,1.81-.86,2.71-.93,0-1.85,0-2.78,0ZM231.43,84.25c-.71,2.17-1.41,4.34-2.08,6.51,1.65,0,3.3,0,4.94,0-.97-2.17-1.93-4.34-2.86-6.51Z"/><path class="i" d="M250.6,93.49c.05.67.11,1.35.16,2.02-3.13,0-6.26,0-9.38,0-.39-4.61-.69-9.23-.89-13.85.9,0,1.8,0,2.69,0,.18,3.95.42,7.89.73,11.83,2.23,0,4.46,0,6.69,0Z"/><path class="i" d="M205.79,100.82c.07.68.14,1.35.21,2.03-1.51,0-3.03,0-4.54,0,.41,3.93.89,7.85,1.43,11.77-.9,0-1.8,0-2.69,0-.54-3.92-1.02-7.84-1.43-11.77-1.5,0-3,0-4.5,0-.07-.68-.14-1.36-.21-2.03,3.91,0,7.83,0,11.74-.01Z"/><path class="i" d="M206.44,114.62c1.26-4.59,2.61-9.2,4.05-13.81.93,0,1.86,0,2.8,0,2.36,4.6,4.82,9.21,7.36,13.8-.92,0-1.84,0-2.76,0-.5-.9-.99-1.8-1.48-2.7-2.16,0-4.32,0-6.48,0-.24.9-.48,1.8-.71,2.7-.93,0-1.85,0-2.78,0ZM212.16,103.38c-.6,2.17-1.18,4.33-1.73,6.49,1.65,0,3.3,0,4.94,0-1.09-2.16-2.16-4.32-3.21-6.49Z"/><path class="i" d="M223.05,110.57c.47,1.18,1.71,2.03,3.31,2.03,1.54,0,2.56-.66,2.42-1.76-.1-.81-.81-1.39-2.16-1.83-.66-.2-1.31-.41-1.97-.61-3.21-.96-3.94-2.72-4.07-3.88-.27-2.43,1.78-3.93,4.47-3.93,2.46,0,4.32,1.2,5.21,3.16-.73.3-1.45.59-2.18.89-.65-1.4-1.73-1.79-2.8-1.79-1.2,0-2.13.56-2.01,1.64.05.47.28,1.19,1.94,1.71.66.22,1.31.43,1.97.65,2.96.85,4.07,2.54,4.26,3.9.34,2.66-1.88,4.08-4.72,4.08-2.88,0-5.37-1.51-6.05-3.74.79-.17,1.58-.34,2.38-.51Z"/><path class="i" d="M243.35,100.78c.07.68.14,1.35.21,2.03-1.51,0-3.03,0-4.54,0,.41,3.93.89,7.85,1.43,11.77-.9,0-1.8,0-2.69,0-.54-3.92-1.02-7.84-1.43-11.77-1.5,0-3,0-4.5,0-.07-.68-.14-1.36-.21-2.03,3.91,0,7.83,0,11.74-.01Z"/><path class="i" d="M247.3,114.58c-.63-4.59-1.18-9.2-1.63-13.8,3.19,0,6.38,0,9.57,0,.07.68.14,1.35.21,2.03-2.29,0-4.59,0-6.88,0,.14,1.33.29,2.67.44,4,2,0,4,0,6,0,.08.67.16,1.34.24,2.01-2,0-4,0-6,0,.15,1.25.31,2.5.48,3.75,2.29,0,4.59,0,6.88,0,.09.67.18,1.34.27,2.01-3.19,0-6.38,0-9.57,0Z"/></g><g id="g"><path class="i" d="M87.17,12.45c-5.26-1.96-10.38-3.88-15.53-5.83-5.09-1.95-10.2-3.87-15.38-5.79-2.99-1.11-6.44-1.1-9.73.02-4.99,1.72-10.08,3.46-15.19,5.17-6.33,2.14-12.7,4.32-18.94,6.49-2.04.73-3.98,1.88-5.6,3.37-2.87,2.65-4.63,6.12-5,9.79-2.85,29.22-2.31,58.79,1.54,87.89,1.01,7.61,8.14,13.78,15.86,13.77l65.01-.13c3.39-.01,6.57-1.2,8.94-3.39,3.12-2.88,4.55-7.08,3.96-11.55-3.76-28.44-4.29-57.32-1.5-85.91.59-6.25-2.79-11.85-8.44-13.92ZM91.36,25.95c-2.8,28.89-2.28,58.07,1.55,86.9.41,3.14-.64,6.01-2.63,7.85-1.53,1.41-3.64,2.25-6.04,2.28-21.71.04-43.36.09-65.01.13-5.65,0-10.96-4.5-11.66-10.09-3.86-28.86-4.35-58.01-1.55-86.96.26-2.66,1.62-5.19,3.65-7.06,1.19-1.09,2.57-1.97,4.16-2.5,11.18-3.9,22.84-7.77,34.08-11.67,2.34-.78,4.81-.79,6.91-.02,10.41,3.85,20.43,7.71,30.87,11.59,3.87,1.45,6.12,5.26,5.68,9.54Z"/><path class="j" d="M85.69,16.41c-10.44-3.88-20.46-7.74-30.87-11.59-2.1-.78-4.56-.76-6.91.02-11.24,3.89-22.9,7.77-34.08,11.67-1.58.54-2.97,1.41-4.16,2.5-2.03,1.87-3.39,4.4-3.65,7.06-2.81,28.95-2.32,58.1,1.55,86.96.7,5.58,6.01,10.09,11.66,10.09,21.65-.05,43.3-.09,65.01-.13,2.4-.02,4.51-.87,6.04-2.28,2-1.84,3.04-4.71,2.63-7.85-3.84-28.83-4.35-58.01-1.55-86.9.44-4.28-1.8-8.09-5.68-9.54ZM21.42,114.92c-2.27-4.72-4.54-9.43-6.63-14.14.87,0,1.77-.02,2.7,0,1.5,3.63,3.1,7.24,4.75,10.85.72-3.6,1.47-7.24,2.28-10.87.9-.02,1.8.01,2.7,0-1.18,4.73-2.31,9.45-3.28,14.16-.87,0-1.68,0-2.52.02ZM40.13,112.8c.12.7.18,1.39.28,2.05-3.06,0-6.13.05-9.19.05-.65-4.71-1.24-9.42-1.7-14.18,3.06,0,6.13.01,9.22-.01.06.69.15,1.42.21,2.11-2.19,0-4.44,0-6.64,0,.15,1.36.28,2.74.46,4.13,1.92-.04,3.84-.02,5.8-.03.06.69.16,1.36.22,2.05-1.89.01-3.84.02-5.77,0,.16,1.3.31,2.6.5,3.86,2.19,0,4.42-.03,6.61-.03ZM41.11,107.79c-.5-3.98,2.37-7.32,6.75-7.32,2.07,0,3.7.57,5.31,1.69-.33.65-.65,1.29-.98,1.94-1.49-.93-2.71-1.31-4.03-1.31-3.18-.01-4.72,2.45-4.41,5.04.31,2.65,2.44,4.9,5.59,4.88,1.08-.02,2.08-.25,2.91-.72-.12-.82-.23-1.63-.32-2.48-1.26,0-2.52.02-3.78.03-.09-.72-.18-1.39-.25-2.08,2.04.02,4.08-.01,6.16-.02.22,1.87.45,3.68.71,5.52-1.72,1.76-3.78,2.1-5.13,2.07-4.36.03-8.06-3.24-8.53-7.26ZM66.98,114.83c-.5-.92-.97-1.87-1.45-2.76-2.07,0-4.17-.02-6.24-.02-.22.95-.44,1.84-.66,2.8-.9-.04-1.8-.01-2.67-.02,1.15-4.7,2.43-9.45,3.79-14.17.87,0,1.8.01,2.67.02,2.33,4.72,4.72,9.44,7.2,14.14-.87,0-1.74-.01-2.64.01ZM83.2,114.77c-.66.03-1.32,0-1.95.01-2.81-3.18-5.54-6.32-8.26-9.53.38,3.17.79,6.37,1.23,9.54-.87,0-1.74-.01-2.58.01-.65-4.71-1.24-9.42-1.7-14.18.66.03,1.29.02,1.98.02,2.63,3.17,5.33,6.34,8.05,9.49-.38-3.17-.76-6.34-1.08-9.5.87,0,1.74.01,2.61.02.47,4.7,1.06,9.41,1.71,14.12ZM60.59,40.52c-.13.93-1,1.67-1.93,1.6-.45-.05-4.25-.23-7.08,2.77-2.54,2.69-2.47,6.02-2.4,6.66v.06c.76-.18,1.33-.31,1.64-.41,1.15-.31,7.53-2.15,11.75-1.65,3.74.42,7.12,2.84,9.02,5.65,3.4,4.94,2.11,10.93,1.36,15.31-.44,1.84-3.17,18.67-14.58,20.93-1.36.27-3.8.51-7.07-.41-2.23-.66-4.57-.64-6.7,0-3.16.95-5.64.7-7.04.43-11.98-2.17-16.28-18.98-16.56-20.86-.9-4.3-2.28-10.3,1.32-15.29.22-.32,3.59-4.81,8.88-5.64,4.44-.69,10.61,1.12,12.13,1.58.3.07.74.18,1.37.3-2.22-.72-6.79-2.74-9.34-7.95-2.55-5.15-1.32-10.2-.65-12.16.27-.83,1.05-1.37,1.92-1.3,1.59.09,7.05.89,10.48,5.86,1.48,2.1,2.14,4.32,2.42,6.13,3.91-3.77,8.7-3.58,9.63-3.51.93.07,1.58.91,1.45,1.89ZM54.75,16.65c.03.09.11.3.09.6.06.12.05.3.04.54.02.21-.02.42-.03.66-.23,2-1.48,3.27-1.98,3.73-1.06.98-2.5,1.61-4,1.61-2.94,0-5.1-2.4-4.74-5.33.18-1.43.89-2.73,1.95-3.7.31-.29,1.87-1.72,4.06-1.67.12,0,.42.02.84.09.06,0,.15.04.24.07.12,0,.27.04.45.11.47.14,1.06.4,1.58.91.12.06.26.22.38.35.69.75.99,1.57,1.12,2.03Z"/><path class="i" d="M54.75,16.65c.04.17.21.87.11,1.81-.22,2-1.5,3.29-1.98,3.73-1.06.98-2.5,1.61-4,1.61-2.94,0-5.1-2.4-4.74-5.33.18-1.43.89-2.73,1.95-3.7.3-.28,1.86-1.72,4.06-1.67.14,0,.45.02.84.09.43.09,1.47.3,2.42,1.18.89.82,1.22,1.78,1.35,2.28Z"/><path class="k" d="M60.59,40.52c-.13.93-1,1.67-1.93,1.6-.45-.05-4.25-.23-7.08,2.77-2.54,2.69-2.47,6.02-2.4,6.66v.06c-.61.1-1.33.19-2.14.18-.27.02-.54-.02-.75-.06-.21.02-.39.01-.54-.02-.3-.01-.57-.05-.78-.09-.12,0-.21-.04-.3-.07-2.22-.72-6.79-2.74-9.34-7.95-2.55-5.15-1.32-10.2-.65-12.16.27-.83,1.05-1.37,1.92-1.3,1.59.09,7.05.89,10.48,5.86,1.48,2.1,2.14,4.32,2.42,6.13,3.91-3.77,8.7-3.58,9.63-3.51.93.07,1.58.91,1.45,1.89Z"/><path class="l" d="M71.58,55.2c3.4,4.94,2.11,10.93,1.36,15.31-.44,1.84-3.17,18.67-14.58,20.93-1.36.27-3.8.51-7.07-.41-2.23-.66-4.57-.64-6.7,0-3.16.95-5.64.7-7.04.43-11.98-2.17-16.28-18.98-16.56-20.86-.9-4.3-2.28-10.3,1.32-15.29.22-.32,3.59-4.81,8.88-5.64,4.44-.69,10.61,1.12,12.13,1.58.3.07.74.18,1.37.3.09.03.18.07.3.07.21.04.48.08.78.09.15.04.33.04.54.02.21.04.48.08.75.06.81,0,1.54-.09,2.14-.18.76-.18,1.33-.31,1.64-.41,1.15-.31,7.53-2.15,11.75-1.65,3.74.42,7.12,2.84,9.02,5.65Z"/><path class="i" d="M24.53,100.75c-.81,3.63-1.56,7.26-2.28,10.87-1.65-3.61-3.25-7.22-4.75-10.85-.93,0-1.83.02-2.7,0,2.09,4.71,4.36,9.43,6.63,14.14.84-.02,1.65-.02,2.52-.02.97-4.7,2.1-9.43,3.28-14.16-.9.02-1.8-.01-2.7,0Z"/><path class="i" d="M38.94,102.81c-.06-.69-.15-1.42-.21-2.11-3.09.02-6.16.02-9.22.01.47,4.76,1.05,9.47,1.7,14.18,3.06,0,6.13-.05,9.19-.05-.09-.66-.15-1.36-.28-2.05-2.19,0-4.42.03-6.61.03-.19-1.27-.35-2.57-.5-3.86,1.92.02,3.87,0,5.77,0-.06-.69-.15-1.36-.22-2.05-1.95.01-3.87,0-5.8.03-.18-1.39-.31-2.77-.46-4.13,2.19,0,4.44,0,6.64,0Z"/><path class="i" d="M48.16,102.8c1.32,0,2.54.37,4.03,1.31.33-.65.65-1.29.98-1.94-1.61-1.12-3.23-1.69-5.31-1.69-4.38,0-7.25,3.34-6.75,7.32.47,4.01,4.18,7.29,8.53,7.26,1.35.03,3.41-.31,5.13-2.07-.25-1.84-.48-3.65-.71-5.52-2.07,0-4.12.04-6.16.02.06.69.15,1.36.25,2.08,1.26,0,2.52-.02,3.78-.03.09.84.2,1.66.32,2.48-.83.48-1.83.71-2.91.72-3.15.02-5.28-2.23-5.59-4.88-.31-2.6,1.23-5.05,4.41-5.04Z"/><path class="i" d="M59.75,100.66c-1.36,4.72-2.64,9.47-3.79,14.17.87,0,1.77-.02,2.67.02.22-.95.44-1.84.66-2.8,2.07,0,4.17.02,6.24.02.47.89.95,1.84,1.45,2.76.9-.02,1.77-.02,2.64-.01-2.48-4.7-4.87-9.42-7.2-14.14-.87,0-1.8-.01-2.67-.02ZM64.51,109.95c-1.56,0-3.18,0-4.78.02.54-2.23,1.08-4.46,1.65-6.66.99,2.2,2.07,4.44,3.12,6.64Z"/><path class="i" d="M78.88,100.63c.32,3.17.7,6.33,1.08,9.5-2.72-3.14-5.42-6.32-8.05-9.49-.69,0-1.32,0-1.98-.02.47,4.76,1.05,9.47,1.7,14.18.84-.03,1.71-.02,2.58-.01-.44-3.17-.85-6.37-1.23-9.54,2.72,3.2,5.45,6.35,8.26,9.53.63,0,1.29.02,1.95-.01-.65-4.71-1.24-9.42-1.71-14.12-.87,0-1.74-.01-2.61-.02Z"/></g></g></g></svg>