<?xml version="1.0" encoding="UTF-8"?><svg id="b" xmlns="http://www.w3.org/2000/svg" viewBox="0 0 166.27 221.73"><defs><style>.d{fill:#231f20;}</style></defs><g id="c"><path class="d" d="M33.43,42.27c0,12.78-6.3,19.68-17.16,19.68S.43,54.39.43,46.83c0-1.08.42-4.02,1.14-5.16h5.7c-.6,1.56-1.02,3.9-1.02,4.86,0,5.22,2.94,10.02,9.96,10.02,7.44,0,11.22-5.4,11.22-14.28v-22.98h6v22.98Z"/><path class="d" d="M65.23,19.3h6.48v.66l-15.48,21.12,7.86,10.62c1.86,2.58,4.08,5.04,6.66,5.04.9,0,2.58-.06,4.44-1.56l2.16,4.2c-1.68,1.86-5.34,2.58-7.26,2.58-6.18,0-9.54-5.1-11.52-8.04l-8.16-11.28v18.66h-6V19.3h6v20.52l14.82-20.52Z"/><path class="d" d="M109.39,67.59c1.68,0,4.56-.96,5.7-1.92l2.16,4.32c-2.76,2.16-6.12,2.58-8.16,2.58-8.76,0-11.82-5.7-13.02-10.74-11.04-.96-19.74-10.26-19.74-21.54,0-11.94,9.78-21.66,21.78-21.66s21.78,9.72,21.78,21.66c0,10.68-7.8,19.56-18,21.3.78,3.66,3,6,7.5,6ZM98.11,56.55c8.58,0,15.66-7.02,15.66-16.26s-7.08-16.26-15.66-16.26-15.66,7.02-15.66,16.26,7.08,16.26,15.66,16.26Z"/><path class="d" d="M128.47,61.29V19.3h17.52c8.04,0,12.66,6.12,12.66,13.2,0,6.24-3.6,11.46-9.9,12.66.42,4.56,3.3,11.7,7.98,11.7,2.1,0,3.78-.84,4.92-1.92l2.1,4.08c-1.98,2.04-4.68,2.94-7.38,2.94-9.84,0-12.9-11.46-13.32-16.56h-8.58v15.9h-6ZM144.73,40.59c4.8,0,7.68-3.36,7.68-8.16s-2.94-8.22-7.68-8.22h-10.26v16.38h10.26Z"/><path class="d" d="M.46,8.67V.28h3.5c1.61,0,2.53,1.22,2.53,2.64,0,1.25-.72,2.29-1.98,2.53.08.91.66,2.34,1.59,2.34.42,0,.76-.17.98-.38l.42.82c-.4.41-.94.59-1.48.59-1.97,0-2.58-2.29-2.66-3.31h-1.71v3.18H.46ZM3.71,4.53c.96,0,1.54-.67,1.54-1.63s-.59-1.64-1.54-1.64H1.65v3.27h2.05Z"/><path class="d" d="M13.99,7.69c-.77.86-1.74,1.12-2.63,1.12-2.09,0-3.38-1.4-3.38-3.11s1.37-3.15,3.23-3.15c1.58,0,3.06,1.02,3.06,3.24h-5.12c-.04,1.16.9,1.99,2.23,1.99.72,0,1.37-.24,1.97-.76l.65.67ZM9.25,4.88h3.81c-.32-1.09-1.18-1.32-1.83-1.32-.71,0-1.58.28-1.98,1.32Z"/><path class="d" d="M21.44,8.62c0,1.99-1.49,2.87-3.13,2.87-1.27,0-1.99-.4-2.57-.86l.47-.91c.6.53,1.33.76,2.1.76,1.16,0,1.97-.67,1.97-1.96v-.8c-.58.82-1.37,1.09-2.17,1.09-1.8,0-2.97-1.42-2.97-3.13s1.18-3.13,2.97-3.13c.8,0,1.6.28,2.17,1.09v-.96h1.16v5.95ZM18.25,3.57c-1.25,0-1.96.96-1.96,2.1s.71,2.1,1.96,2.1,2.04-.89,2.05-2.1c-.01-1.21-.84-2.1-2.05-2.1Z"/><path class="d" d="M24.36,6.06c0,1.27.59,1.71,1.22,1.71s1.93-.42,1.93-2.31v-2.78h1.16v6h-1.16v-1.2c-.25.85-1.03,1.33-2.01,1.33-1.3,0-2.3-.82-2.3-2.75v-3.38h1.16v3.38Z"/><path class="d" d="M31.73,8.67h-1.16V0h1.16v8.67Z"/><path class="d" d="M36.14,2.54c.8,0,1.6.28,2.17,1.09v-.96h1.16v6h-1.16v-.96c-.58.82-1.37,1.09-2.17,1.09-1.8,0-2.97-1.42-2.97-3.13s1.18-3.13,2.97-3.13ZM36.29,3.57c-1.25,0-1.96.96-1.96,2.1s.71,2.1,1.96,2.1,2.04-.89,2.05-2.1c-.01-1.21-.84-2.1-2.05-2.1Z"/><path class="d" d="M42.49,4.03c.2-.95.86-1.49,1.61-1.49.22,0,.38.06.55.13v1.14c-.19-.11-.42-.16-.64-.16-.4,0-1.52.19-1.52,2.75v2.27h-1.16V2.67h1.16v1.36Z"/><path class="d" d="M33.61,116.29c0,12.84-6.3,19.44-17.34,19.44-11.64,0-16.02-7.8-16.02-14.94,0-1.74.6-4.56,1.62-6.06h7.14c-1.02,1.98-1.44,4.44-1.44,5.58,0,3.84,2.52,8.82,8.64,8.82,6.78,0,9.72-4.68,9.72-12.84v-23.22h7.68v23.22Z"/><path class="d" d="M51.43,135.07h-7.68v-42h7.68v19.92l13.62-19.92h7.98v.96l-14.28,20.22,6.6,9.96c2.82,3.9,3.78,4.98,6.24,4.98.78,0,2.16-.18,3.72-1.26.9,1.8,1.8,3.6,2.76,5.4-2.22,1.74-5.28,2.4-7.68,2.4-5.7,0-9.36-4.14-11.7-8.28l-7.26-11.34v18.96Z"/><path class="d" d="M109.87,140.59c1.74,0,4.74-.9,6.3-2.04l2.52,5.4c-2.46,1.86-5.88,2.94-9.36,2.94-8.46,0-12.78-5.58-13.5-11.34-10.56-1.44-19.14-10.5-19.14-21.48,0-11.94,10.02-21.66,22.02-21.66s22.02,9.72,22.02,21.66c0,10.38-7.86,19.08-17.58,21.18.48,3.42,2.76,5.34,6.72,5.34ZM98.71,128.77c7.74,0,14.16-6.24,14.16-14.7s-6.42-14.7-14.16-14.7-14.16,6.24-14.16,14.7,6.42,14.7,14.16,14.7Z"/><path class="d" d="M150.31,119.23c.72,4.5,3,9.84,7.44,9.84,1.8,0,3.48-.78,4.62-1.86l2.7,5.28c-2.4,2.1-4.86,3.24-8.4,3.24-9.9,0-12.96-11.28-13.38-16.08h-7.08v15.42h-7.68v-42h18.12c8.34,0,13.08,6.3,13.08,13.5,0,6.12-3.54,11.16-9.42,12.66ZM145.45,113.53c3.96,0,6.48-2.88,6.48-7.02s-2.58-7.08-6.48-7.08h-9.24v14.1h9.24Z"/><path class="d" d="M4.44,82.35l-2.4-5.77-.5,5.87H0l.78-8.4h1.61l2.58,6.18,2.57-6.18h1.61l.79,8.4h-1.54l-.52-5.87-2.4,5.77h-1.04Z"/><path class="d" d="M17.2,81.41c-.82.91-1.81,1.16-2.75,1.16-2.18,0-3.49-1.42-3.49-3.14s1.4-3.19,3.32-3.19c1.64,0,3.19,1.03,3.19,3.37h-5.04c0,.96.78,1.71,2.09,1.71.76,0,1.32-.28,1.83-.74l.84.83ZM12.52,78.62h3.45c-.23-.94-1.06-1.2-1.68-1.2s-1.46.26-1.77,1.2Z"/><path class="d" d="M24.78,73.77v8.67h-1.48v-.91c-.44.66-1.2,1.04-2.09,1.04-1.79,0-2.96-1.42-2.96-3.19s1.12-3.14,2.97-3.14c.82,0,1.57.33,2.08,1.03v-3.5h1.48ZM21.53,81.34c1.01,0,1.8-.68,1.8-1.88s-.74-1.98-1.85-1.98-1.74.88-1.74,1.92.68,1.94,1.79,1.94Z"/><path class="d" d="M27.23,73.64c.55,0,.98.41.98.94s-.43.92-.98.92-.96-.4-.96-.92.41-.94.96-.94ZM26.48,82.44v-6.07h1.48v6.07h-1.48Z"/><path class="d" d="M35.26,82.44h-1.48v-1.02c-.38.79-1.09,1.15-1.96,1.15-1.51,0-2.25-1.09-2.25-2.84v-3.36h1.48v3.35c0,.98.38,1.56,1.18,1.56.68,0,1.56-.56,1.56-2.28v-2.63h1.48v6.07Z"/><path class="d" d="M40.92,79.1c0-1.06-.42-1.61-1.13-1.61s-1.33.52-1.37,1.85v3.11h-1.48v-6.07h1.48v1.02c.32-.74,1.01-1.15,1.79-1.15s1.5.3,1.9,1.14c.48-.97,1.33-1.14,1.99-1.14,1.57,0,2.25,1.09,2.25,2.84v3.36h-1.48v-3.35c0-1.06-.42-1.61-1.13-1.61-.67,0-1.33.52-1.37,1.85v3.11h-1.46v-3.35Z"/><path class="d" d="M33.79,190.83c0,12.84-6.3,19.2-17.46,19.2-12,0-16.2-8.1-16.2-14.76,0-2.46.78-5.1,2.1-7.02h8.58c-1.5,2.4-1.86,4.98-1.86,6.36,0,3.6,1.98,7.62,7.26,7.62,6.12,0,8.28-3.96,8.28-11.4v-23.52h9.3v23.52Z"/><path class="d" d="M52.33,190.17v19.2h-9.18v-42h9.18v19.26l12.42-19.26h9.54v1.2l-13.08,19.38,5.28,9.3c2.52,4.38,3.48,4.92,5.88,4.92.66,0,1.68-.3,2.94-1.02l3.36,6.6c-2.7,1.74-5.22,2.28-8.1,2.28-5.16,0-9.12-3.24-11.82-8.52l-6.42-11.46v.12Z"/><path class="d" d="M120.31,218.43c-2.22,1.5-5.7,3.3-10.56,3.3-8.16,0-13.74-5.46-13.98-12-10.14-1.92-18.24-10.74-18.24-21.36,0-11.94,9.9-21.66,21.96-21.66s21.9,9.72,21.9,21.66c0,10.02-7.56,18.6-16.8,21.06.12,3.18,2.52,4.68,5.88,4.68,1.8,0,4.92-.9,6.96-2.22l2.88,6.54ZM99.49,201.51c6.9,0,12.6-5.46,12.6-13.14s-5.7-13.14-12.6-13.14-12.66,5.46-12.66,13.14,5.7,13.14,12.66,13.14Z"/><path class="d" d="M151.75,193.77c1.08,4.44,2.76,8.04,6.96,8.04,1.44,0,3.12-.72,4.26-1.8l3.3,6.42c-2.76,2.16-5.04,3.6-9.36,3.6-9.96,0-13.02-11.16-13.5-15.6h-5.58v14.94h-9.24v-42h18.66c8.64,0,13.38,6.42,13.38,13.8,0,5.94-3.36,10.86-8.88,12.6ZM146.05,186.99c3.3,0,5.28-2.4,5.28-5.88s-1.98-5.94-5.28-5.94h-8.22v11.82h8.22Z"/><path class="d" d="M5.03,152.39c1.01.18,1.75,1.13,1.75,1.99,0,1.43-1.19,2.36-2.97,2.36H.29v-8.41h3.15c1.7.01,2.95.88,2.95,2.3,0,.71-.47,1.44-1.37,1.75ZM2.91,151.88c1.32,0,1.6-.6,1.6-1.15,0-.6-.5-.9-1.07-.9h-1.3v2.05h.77ZM2.15,153.17v2.1h1.65c.62,0,1.09-.36,1.09-.92s-.23-1.18-1.78-1.18h-.97Z"/><path class="d" d="M11,150.46c1.8,0,3.38,1.29,3.38,3.2s-1.58,3.21-3.38,3.21-3.38-1.28-3.38-3.21,1.6-3.2,3.38-3.2ZM11,155.34c.89,0,1.64-.72,1.64-1.68s-.76-1.67-1.64-1.67-1.64.71-1.64,1.67.77,1.68,1.64,1.68Z"/><path class="d" d="M15.56,156.75v-8.67h1.79v8.67h-1.79Z"/><path class="d" d="M25.27,148.08v8.67h-1.79v-.9c-.44.64-1.03,1.03-1.93,1.03-1.87,0-3-1.44-3-3.24s1.04-3.18,2.96-3.18c.83,0,1.55.41,1.97.97v-3.36h1.79ZM21.92,155.43c.88,0,1.61-.56,1.61-1.68s-.68-1.83-1.66-1.83-1.54.79-1.54,1.74.6,1.78,1.58,1.78Z"/></g></svg>