<?xml version="1.0" encoding="UTF-8"?><svg id="b" xmlns="http://www.w3.org/2000/svg" viewBox="0 0 479.4 142.23"><defs><style>.d{fill:#231f20;}</style></defs><g id="c"><path class="d" d="M107.04,87.09c-.54-.47-1.09-.94-1.63-1.38,13.68-5.65,23.32-19.12,23.32-34.81,0-20.76-16.88-37.63-37.63-37.63s-37.63,16.88-37.63,37.63c0,7.24,2.06,14.03,5.63,19.78-7.96-.96-21.3-4.36-32.09-15.98-12.23-13.18-13.61-28.72-13.63-34.79,0-3.68-2.99-6.64-6.66-6.64h-.03c-3.68,0-6.65,3.01-6.63,6.68.03,7.64,1.76,27.2,17.19,43.82,5.96,6.43,12.53,10.86,18.89,13.91-5.03,2.44-10.2,5.74-15.11,10.24C1.75,105.54.1,128.75.05,135.45l-.05,6.78,6.78-.07c6.84-.07,30.55-1.85,48.19-21.73,11.02-12.44,14.62-26.39,15.73-35.61,7.29.97,17.99,3.88,27.54,12.28,15.89,13.99,17.32,32.99,17.38,38.47.04,3.65,3.01,6.59,6.66,6.59h.07c3.68-.04,6.63-3.06,6.59-6.74-.08-6.88-1.88-30.7-21.9-48.32ZM44.99,111.58c-10.06,11.35-22.66,15.27-30.97,16.59,1.28-8.14,5.07-20.43,16-30.42,9.32-8.53,19.79-11.68,27.22-12.8-1.1,7.28-4.15,17.49-12.25,26.63ZM91.1,26.59c13.4,0,24.31,10.91,24.31,24.31s-10.91,24.31-24.31,24.31-24.3-10.91-24.3-24.31,10.9-24.31,24.3-24.31Z"/><path class="d" d="M300.96,108.21c-.44-3.85-1.28-11.01-5.72-18.55-1.45-2.47-4.4-6.74-9.21-10.72,11.49-6.47,19.27-18.79,19.27-32.89,0-20.81-16.93-37.73-37.73-37.73s-37.72,16.93-37.72,37.73c0,6.89,1.85,13.34,5.08,18.9l-.55-.07v.33c-11.53-1.13-22.57-3.19-29.33-10.51-4.38-4.76-6.04-10.65-6.58-12.58-1.17-4.16-1.3-7.9-1.52-14.09-.15-4.15-.08-8.32.2-12.43.27-3.8-2.61-7.11-6.42-7.36-3.81-.28-7.11,2.61-7.36,6.42-.32,4.58-.39,9.24-.23,13.86.24,6.73.4,11.61,2.02,17.35.77,2.72,3.1,11.02,9.73,18.21,10.18,11.03,24.88,13.64,38.89,14.97-.33.84-.74,1.56-1.25,2.16-2.42,2.86-7.05,3.05-14.37,3.05h-.39c-8.95,0-20.09,0-28.9,8.38-2.21,2.11-7.61,8-9.87,17.11-1.13,4.54-1.18,9.36-1.3,18.95-.02,2.22-.02,4.47,0,6.67l.09,6.74,6.75.07c.36,0,.71,0,1.07,0,3.41,0,6.86-.17,10.26-.5l.37-.03c7.02-.69,14.97-1.46,23.37-5.4,4-1.87,11.43-5.35,17.56-13.23,8.15-10.47,9.44-22.79,10.13-29.41.13-1.19.23-2.39.29-3.57l.24-9.36c3.62.6,7.22,1.28,10.76,2.05,12.63,2.73,15.35,4.49,16.24,5.07,4.68,3.04,7.35,6.86,8.54,8.86,2.96,5.02,3.52,9.9,3.91,13.13.09.76.13,1.35.32,7.44.18,5.7.3,10.37.37,13.52.1,3.81,3.26,6.82,7.08,6.74,3.81-.09,6.83-3.26,6.74-7.07-.07-3.17-.2-7.87-.37-13.62-.2-6.3-.26-7.25-.41-8.62ZM226.25,114.55c-4.09,5.26-9.16,7.63-12.52,9.21-6.25,2.92-12.37,3.51-18.84,4.15l-.38.04c-1,.1-2,.18-3.01.25.1-8.07.17-12.21.89-15.11,1.13-4.56,3.84-8.38,5.99-10.43,4.62-4.41,11.04-4.57,18.48-4.57h.88c4.95,0,10.34,0,15.28-1.47-.77,5.42-2.36,12.29-6.77,17.94ZM267.56,22.15c13.19,0,23.92,10.73,23.92,23.92s-10.73,23.91-23.92,23.91-23.91-10.73-23.91-23.91,10.72-23.92,23.91-23.92Z"/><path class="d" d="M363.23,142.23c-.35,0-.7,0-1.04,0l-6.75-.07-.09-6.75c-.03-2.22-.03-4.46,0-6.67.11-9.59.17-14.41,1.3-18.95,2.26-9.11,7.66-15.01,9.88-17.12,8.81-8.39,19.94-8.39,28.89-8.38,7.56,0,12.3-.14,14.77-3.06.51-.6.93-1.32,1.25-2.16-14.01-1.32-28.71-3.94-38.89-14.97-6.63-7.19-8.96-15.48-9.73-18.21-1.62-5.75-1.79-10.62-2.03-17.35-.16-4.62-.09-9.28.23-13.85.26-3.81,3.56-6.69,7.37-6.42,3.81.26,6.68,3.56,6.42,7.37-.28,4.1-.35,8.28-.2,12.42.22,6.2.35,9.94,1.52,14.1.55,1.94,2.2,7.83,6.59,12.58,3.2,3.47,6.93,5.43,11.76,7.22,14.99,5.57,26.53,4.24,44.68,7.31,1.82.31,6.01,1.05,11.24,2.84,2.96,1.02,6.22,2.13,9.62,4.16,7.59,4.53,11.47,11,12.9,13.43,4.44,7.54,5.28,14.7,5.72,18.54.16,1.37.22,2.32.41,8.62.18,5.75.29,10.45.37,13.62.09,3.82-2.93,6.98-6.74,7.07-3.8.06-6.98-2.93-7.07-6.74-.07-3.15-.19-7.81-.37-13.52-.19-6.07-.24-6.7-.32-7.44-.38-3.23-.95-8.1-3.91-13.13-1.18-2-3.86-5.82-8.53-8.86-.89-.58-3.61-2.35-16.24-5.08-3.54-.77-7.14-1.45-10.76-2.05l-.24,9.36c-.06,1.18-.16,2.38-.28,3.58-.69,6.62-1.98,18.93-10.13,29.41-6.12,7.87-13.56,11.35-17.56,13.23-8.4,3.94-16.36,4.71-23.38,5.39l-.36.03c-3.4.33-6.86.5-10.29.5ZM394.52,98.11c-7.44,0-13.86.16-18.48,4.56-2.16,2.05-4.86,5.87-6,10.44-.72,2.9-.79,7.03-.88,15.1,1.01-.06,2.01-.15,3.01-.24l.36-.04c6.48-.63,12.61-1.23,18.85-4.15,3.36-1.57,8.43-3.95,12.52-9.2,4.41-5.66,6-12.53,6.77-17.95-4.94,1.49-10.3,1.48-15.29,1.48h-.87Z"/><circle class="d" cx="444.19" cy="29.8" r="29.79"/></g></svg>