<?xml version="1.0" encoding="UTF-8"?><svg id="b" xmlns="http://www.w3.org/2000/svg" viewBox="0 0 469.84 142.23"><defs><style>.d{fill:#231f20;}</style></defs><g id="c"><path class="d" d="M353.66,142.23c-.35,0-.7,0-1.04,0l-6.75-.07-.09-6.75c-.03-2.22-.03-4.46,0-6.67.11-9.59.17-14.41,1.3-18.95,2.26-9.11,7.66-15.01,9.88-17.12,8.81-8.39,19.94-8.39,28.89-8.38,7.56,0,12.3-.14,14.77-3.06.51-.6.93-1.32,1.25-2.16-14.01-1.32-28.71-3.94-38.89-14.97-6.63-7.19-8.96-15.48-9.73-18.21-1.62-5.75-1.79-10.62-2.03-17.35-.16-4.62-.09-9.28.23-13.85.26-3.81,3.56-6.69,7.37-6.42,3.81.26,6.68,3.56,6.42,7.37-.28,4.1-.35,8.28-.2,12.42.22,6.2.35,9.94,1.52,14.1.55,1.94,2.2,7.83,6.59,12.58,3.2,3.47,6.93,5.43,11.76,7.22,14.99,5.57,26.53,4.24,44.68,7.31,1.82.31,6.01,1.05,11.24,2.84,2.96,1.02,6.22,2.13,9.62,4.16,7.59,4.53,11.47,11,12.9,13.43,4.44,7.54,5.28,14.7,5.72,18.54.16,1.37.22,2.32.41,8.62.18,5.75.29,10.45.37,13.62.09,3.82-2.93,6.98-6.74,7.07-3.8.06-6.98-2.93-7.07-6.74-.07-3.15-.19-7.81-.37-13.52-.19-6.07-.24-6.7-.32-7.44-.38-3.23-.95-8.1-3.91-13.13-1.18-2-3.86-5.82-8.53-8.86-.89-.58-3.61-2.35-16.24-5.08-3.54-.77-7.14-1.45-10.76-2.05l-.24,9.36c-.06,1.18-.16,2.38-.28,3.58-.69,6.62-1.98,18.93-10.13,29.41-6.12,7.87-13.56,11.35-17.56,13.23-8.4,3.94-16.36,4.71-23.38,5.39l-.36.03c-3.4.33-6.86.5-10.29.5ZM384.96,98.11c-7.44,0-13.86.16-18.48,4.56-2.16,2.05-4.86,5.87-6,10.44-.72,2.9-.79,7.03-.88,15.1,1.01-.06,2.01-.15,3.01-.24l.36-.04c6.48-.63,12.61-1.23,18.85-4.15,3.36-1.57,8.43-3.95,12.52-9.2,4.41-5.66,6-12.53,6.77-17.95-4.94,1.49-10.3,1.48-15.29,1.48h-.87Z"/><circle class="d" cx="434.63" cy="29.8" r="29.79"/><path class="d" d="M166.66,134.79c.03-4.11.61-28.62,20.73-47.01,17.47-15.97,37.98-16.64,42.95-16.67-4.1-.02-28.3-.54-46.69-20.35-16.35-17.61-16.97-38.47-16.99-43.31,5.41.04,24.6.83,41.49,15.36,21.37,18.39,22.14,44.22,22.19,48.31,5.26.04,24.93.8,42.03,15.86,20.9,18.4,21.6,43.73,21.64,47.83-4.1-.03-28.7-.62-47.09-20.82-15.88-17.44-16.55-37.87-16.58-42.86-.03,5.21-.78,25.03-16,42.2-18.4,20.76-43.58,21.44-47.68,21.48Z"/><circle class="d" cx="262.17" cy="39.28" r="31.84"/><path class="d" d="M84.7,79.04c-8.39-7.39-18-7.89-20.84-7.93,2.5-.05,15.01-.67,23.98-11.09,7.26-8.44,7.66-18.04,7.68-20.74-2.42,0-12.85.32-21.66,8.49-9.9,9.19-10.17,21.27-10.18,23.34h0c-.01-2.4-.35-11.97-7.48-20.47-.1-.12-.21-.25-.31-.37-.18-.21-.35-.43-.54-.64-.38-.41-.76-.8-1.15-1.18-.51-.51-1.05-1.01-1.62-1.5-.23-.19-.46-.37-.68-.55-.06-.05-.13-.1-.19-.15-7.79-6.22-16.3-6.9-19.39-6.97-.19,0-.35,0-.47,0,0,2.42.32,12.85,8.49,21.66.73.78,1.47,1.5,2.23,2.16,0,0,.01.01.02.02,0,0,.01,0,.02.01.49.43.98.83,1.47,1.22.14.11.28.21.41.31.29.22.58.42.86.62,7.65,5.37,15.6,5.8,18.14,5.83-2.21.02-9.03.35-16.06,4.48-.06.04-.12.07-.18.1-.4.24-.8.51-1.2.77-.16.11-.32.2-.49.31-.33.23-.66.48-.99.73-.23.17-.46.33-.69.51-.28.22-.56.48-.84.72-.26.22-.53.43-.79.67,0,0-.02.02-.03.03,0,0-.01,0-.02.01-.16.14-.3.29-.45.43-.15.14-.3.28-.44.42-.15.15-.29.3-.43.44-.14.15-.29.29-.43.44-.14.15-.27.3-.4.45-.14.15-.28.3-.41.45-.14.16-.26.32-.39.47-.12.15-.24.29-.36.44-.14.18-.28.36-.42.54-.1.12-.19.25-.29.37-.15.21-.3.42-.44.62-.07.1-.14.2-.21.3-.17.24-.32.49-.48.73-.04.06-.08.13-.13.19-.19.3-.37.59-.54.89,0,.01-.01.02-.02.04-4.34,7.43-4.51,14.73-4.52,16.27,1.6-.02,9.67-.23,17.51-5.3.08-.05.17-.11.25-.17.23-.15.45-.3.67-.45.15-.11.3-.22.45-.33.16-.11.32-.23.47-.34.21-.16.42-.32.62-.49.1-.08.2-.15.29-.23.25-.2.5-.42.74-.63.06-.05.11-.09.17-.14.28-.24.55-.5.82-.76.03-.02.05-.05.08-.07.29-.28.59-.57.88-.87,0,0,0,0,0,0,.32-.33.63-.67.94-1.02.41-.47.79-.94,1.16-1.41.04-.05.08-.09.11-.14,6.26-8.11,6.63-16.9,6.65-19.42.02,2.57.39,12.71,8.29,21.38,9.2,10.1,21.49,10.39,23.55,10.41-.02-2.05-.37-14.71-10.82-23.91ZM63.68,71.12h0,0Z"/><path class="d" d="M63.68,72.11c17,0,30.84,13.83,30.84,30.84s-13.83,30.84-30.84,30.84-30.84-13.83-30.84-30.84,13.83-30.84,30.84-30.84M63.68,71.11c-17.58,0-31.84,14.25-31.84,31.84s14.25,31.84,31.84,31.84,31.84-14.25,31.84-31.84-14.25-31.84-31.84-31.84h0Z"/><path class="d" d="M95.52,40.27c17,0,30.84,13.83,30.84,30.84s-13.83,30.84-30.84,30.84-30.84-13.83-30.84-30.84,13.83-30.84,30.84-30.84M95.52,39.27c-17.58,0-31.84,14.25-31.84,31.84s14.25,31.84,31.84,31.84,31.84-14.25,31.84-31.84-14.25-31.84-31.84-31.84h0Z"/><path class="d" d="M31.84,40.27c17,0,30.84,13.83,30.84,30.84s-13.83,30.84-30.84,30.84S1,88.12,1,71.11s13.83-30.84,30.84-30.84M31.84,39.27C14.25,39.27,0,53.53,0,71.11s14.25,31.84,31.84,31.84,31.84-14.25,31.84-31.84-14.25-31.84-31.84-31.84h0Z"/><path class="d" d="M63.68,8.44c17,0,30.84,13.83,30.84,30.84s-13.83,30.84-30.84,30.84-30.84-13.83-30.84-30.84,13.83-30.84,30.84-30.84M63.68,7.44c-17.58,0-31.84,14.25-31.84,31.84s14.25,31.84,31.84,31.84,31.84-14.25,31.84-31.84-14.25-31.84-31.84-31.84h0Z"/></g></svg>