<?xml version="1.0" encoding="UTF-8"?><svg id="b" xmlns="http://www.w3.org/2000/svg" viewBox="0 0 479.9 128.35"><defs><style>.d{fill:none;stroke:#231f20;stroke-miterlimit:10;}.e{fill:#231f20;}</style></defs><g id="c"><circle class="d" cx="64.18" cy="96.02" r="31.84"/><circle class="d" cx="96.02" cy="64.18" r="31.84"/><circle class="d" cx="32.34" cy="64.18" r="31.84"/><circle class="d" cx="64.18" cy="32.34" r="31.84"/><path class="e" d="M261.22,72.1c-8.39-7.39-18-7.89-20.84-7.93,2.5-.05,15.01-.67,23.98-11.09,7.26-8.44,7.66-18.04,7.68-20.74-2.42,0-12.85.32-21.66,8.49-9.9,9.19-10.17,21.27-10.18,23.34h0c-.01-2.4-.35-11.97-7.48-20.47-.1-.12-.21-.25-.31-.37-.18-.21-.35-.43-.54-.64-.38-.41-.76-.8-1.15-1.18-.51-.51-1.05-1.01-1.62-1.5-.23-.19-.46-.37-.68-.55-.06-.05-.13-.1-.19-.15-7.79-6.22-16.3-6.9-19.39-6.97-.19,0-.35,0-.47,0,0,2.42.32,12.85,8.49,21.66.73.78,1.47,1.5,2.23,2.16,0,0,.01.01.02.02,0,0,.01,0,.02.01.49.43.98.83,1.47,1.22.14.11.28.21.41.31.29.22.58.42.86.62,7.65,5.37,15.6,5.8,18.14,5.83-2.21.02-9.03.35-16.06,4.48-.06.04-.12.07-.18.1-.4.24-.8.51-1.2.77-.16.11-.32.2-.49.31-.33.23-.66.48-.99.73-.23.17-.46.33-.69.51-.28.22-.56.48-.84.72-.26.22-.53.43-.79.67,0,0-.02.02-.03.03,0,0-.01,0-.02.01-.16.14-.3.29-.45.43-.15.14-.3.28-.44.42-.15.15-.29.3-.43.44-.14.15-.29.29-.43.44-.14.15-.27.3-.4.45-.14.15-.28.3-.41.45-.14.16-.26.32-.39.47-.12.15-.24.29-.36.44-.14.18-.28.36-.42.54-.1.12-.19.25-.29.37-.15.21-.3.42-.44.62-.07.1-.14.2-.21.3-.17.24-.32.49-.48.73-.04.06-.08.13-.13.19-.19.3-.37.59-.54.89,0,.01-.01.02-.02.04-4.34,7.43-4.51,14.73-4.52,16.27,1.6-.02,9.67-.23,17.51-5.3.08-.05.17-.11.25-.17.23-.15.45-.3.67-.45.15-.11.3-.22.45-.33.16-.11.32-.23.47-.34.21-.16.42-.32.62-.49.1-.08.2-.15.29-.23.25-.2.5-.42.74-.63.06-.05.11-.09.17-.14.28-.24.55-.5.82-.76.03-.02.05-.05.08-.07.29-.28.59-.57.88-.87,0,0,0,0,0,0,.32-.33.63-.67.94-1.02.41-.47.79-.94,1.16-1.41.04-.05.08-.09.11-.14,6.26-8.11,6.63-16.9,6.65-19.42.02,2.57.39,12.71,8.29,21.38,9.2,10.1,21.49,10.39,23.55,10.41-.02-2.05-.37-14.71-10.82-23.91ZM240.2,64.18h0,0Z"/><path class="e" d="M240.2,65.18c17,0,30.84,13.83,30.84,30.84s-13.83,30.84-30.84,30.84-30.84-13.83-30.84-30.84,13.83-30.84,30.84-30.84M240.2,64.18c-17.58,0-31.84,14.25-31.84,31.84s14.25,31.84,31.84,31.84,31.84-14.25,31.84-31.84-14.25-31.84-31.84-31.84h0Z"/><path class="e" d="M272.04,33.34c17,0,30.84,13.83,30.84,30.84s-13.83,30.84-30.84,30.84-30.84-13.83-30.84-30.84,13.83-30.84,30.84-30.84M272.04,32.34c-17.58,0-31.84,14.25-31.84,31.84s14.25,31.84,31.84,31.84,31.84-14.25,31.84-31.84-14.25-31.84-31.84-31.84h0Z"/><path class="e" d="M208.36,33.34c17,0,30.84,13.83,30.84,30.84s-13.83,30.84-30.84,30.84-30.84-13.83-30.84-30.84,13.83-30.84,30.84-30.84M208.36,32.34c-17.58,0-31.84,14.25-31.84,31.84s14.25,31.84,31.84,31.84,31.84-14.25,31.84-31.84-14.25-31.84-31.84-31.84h0Z"/><path class="e" d="M240.2,1.5c17,0,30.84,13.83,30.84,30.84s-13.83,30.84-30.84,30.84-30.84-13.83-30.84-30.84S223.19,1.5,240.2,1.5M240.2.5c-17.58,0-31.84,14.25-31.84,31.84s14.25,31.84,31.84,31.84,31.84-14.25,31.84-31.84S257.78.5,240.2.5h0Z"/><path class="e" d="M384.38,96.02c.01-2.05.31-14.31,10.36-23.51,8.74-7.99,18.99-8.32,21.48-8.34-2.05-.01-14.15-.27-23.35-10.18-8.18-8.81-8.48-19.24-8.49-21.66,2.71.02,12.3.42,20.74,7.68,10.69,9.2,11.07,22.11,11.1,24.15,2.63.02,12.46.4,21.02,7.93,10.45,9.2,10.8,21.87,10.82,23.91-2.05-.01-14.35-.31-23.55-10.41-7.94-8.72-8.28-18.94-8.29-21.43-.02,2.6-.39,12.51-8,21.1-9.2,10.38-21.79,10.72-23.84,10.74Z"/><path class="e" d="M416.22,65.18c17,0,30.84,13.83,30.84,30.84s-13.83,30.84-30.84,30.84-30.84-13.83-30.84-30.84,13.83-30.84,30.84-30.84M416.22,64.18c-17.58,0-31.84,14.25-31.84,31.84s14.25,31.84,31.84,31.84,31.84-14.25,31.84-31.84-14.25-31.84-31.84-31.84h0Z"/><path class="e" d="M448.06,33.34c17,0,30.84,13.83,30.84,30.84s-13.83,30.84-30.84,30.84-30.84-13.83-30.84-30.84,13.83-30.84,30.84-30.84M448.06,32.34c-17.58,0-31.84,14.25-31.84,31.84s14.25,31.84,31.84,31.84,31.84-14.25,31.84-31.84-14.25-31.84-31.84-31.84h0Z"/><path class="e" d="M384.38,33.34c17,0,30.84,13.83,30.84,30.84s-13.83,30.84-30.84,30.84-30.84-13.83-30.84-30.84,13.83-30.84,30.84-30.84M384.38,32.34c-17.58,0-31.84,14.25-31.84,31.84s14.25,31.84,31.84,31.84,31.84-14.25,31.84-31.84-14.25-31.84-31.84-31.84h0Z"/><path class="e" d="M416.22,1.5c17,0,30.84,13.83,30.84,30.84s-13.83,30.84-30.84,30.84-30.84-13.83-30.84-30.84,13.83-30.84,30.84-30.84M416.22.5c-17.58,0-31.84,14.25-31.84,31.84s14.25,31.84,31.84,31.84,31.84-14.25,31.84-31.84S433.8.5,416.22.5h0Z"/></g></svg>