<?xml version="1.0" encoding="UTF-8"?><svg id="b" xmlns="http://www.w3.org/2000/svg" viewBox="0 0 94.18 95.66"><defs><style>.g{fill:#231f20;}</style></defs><g id="c"><g id="d"><g id="e"><path class="g" d="M5.32,95.66c-.23,0-.47,0-.7,0l-4.54-.05-.06-4.54c-.02-1.49-.02-3,0-4.48.08-6.45.11-9.69.87-12.74,1.52-6.13,5.15-10.09,6.64-11.51,5.92-5.64,13.41-5.64,19.43-5.63,5.08,0,8.27-.09,9.94-2.06.34-.4.62-.89.84-1.45-9.42-.89-19.31-2.65-26.16-10.07-4.46-4.83-6.03-10.41-6.54-12.25-1.09-3.87-1.2-7.14-1.36-11.67-.11-3.11-.06-6.24.15-9.32.18-2.56,2.4-4.5,4.95-4.32,2.56.18,4.49,2.39,4.32,4.95-.19,2.76-.24,5.57-.14,8.35.15,4.17.24,6.69,1.02,9.48.37,1.3,1.48,5.27,4.43,8.46,2.15,2.34,4.66,3.65,7.91,4.86,10.08,3.75,17.84,2.85,30.05,4.92,1.23.21,4.04.7,7.56,1.91,1.99.68,4.18,1.43,6.47,2.8,5.1,3.05,7.72,7.4,8.68,9.03,2.99,5.07,3.55,9.88,3.85,12.47.11.92.15,1.56.27,5.8.12,3.87.2,7.03.25,9.16.06,2.57-1.97,4.69-4.54,4.76-2.55.04-4.69-1.97-4.76-4.54-.05-2.12-.13-5.26-.25-9.09-.13-4.08-.16-4.51-.22-5-.25-2.17-.64-5.45-2.63-8.83-.79-1.35-2.59-3.91-5.74-5.96-.6-.39-2.42-1.58-10.92-3.42-2.38-.52-4.8-.98-7.24-1.38l-.16,6.29c-.04.79-.11,1.6-.19,2.41-.46,4.45-1.33,12.73-6.81,19.78-4.12,5.29-9.12,7.64-11.81,8.9-5.65,2.65-11,3.17-15.72,3.63l-.24.02c-2.29.22-4.61.34-6.92.34ZM26.37,65.99c-5,0-9.32.11-12.43,3.07-1.45,1.38-3.27,3.95-4.03,7.02-.48,1.95-.53,4.73-.59,10.16.68-.04,1.35-.1,2.02-.16l.24-.02c4.36-.42,8.48-.83,12.68-2.79,2.26-1.06,5.67-2.66,8.42-6.19,2.96-3.81,4.04-8.43,4.55-12.07-3.32,1-6.93,1-10.28.99h-.59Z"/><circle class="g" cx="59.78" cy="20.04" r="20.04"/></g><g id="f"><path class="g" d="M91.02,86.24c2.42-.12,4,2.51,2.7,4.58-1.17,1.87-3.9,1.87-5.07,0-1.21-1.92.11-4.47,2.37-4.58ZM91.08,86.85c-1.82.08-2.89,2.1-1.92,3.65.93,1.49,3.11,1.49,4.04,0,1.02-1.63-.21-3.74-2.12-3.65Z"/><path class="g" d="M89.87,87.6h1.4c.47.03.93.16,1.01.69.05.36-.04.7-.37.89l-.21.09c.21.05.36.22.47.4l.53,1.06h-.86l-.4-.82c-.08-.17-.24-.36-.45-.36h-.31v1.18h-.81v-3.13ZM90.68,88.99c.3-.01.78.09.81-.34.03-.34-.13-.47-.46-.47h-.35v.81Z"/></g></g></g></svg>