<?xml version="1.0" encoding="UTF-8"?><svg id="b" xmlns="http://www.w3.org/2000/svg" viewBox="0 0 445.04 97.24"><defs><style>.h{fill:#476730;}.i{fill:#fff;}</style></defs><g id="c"><g id="d"><g id="e"><circle class="h" cx="44.38" cy="49.87" r="44.38"/><path class="i" d="M15.18,44.01c0-.7.01-1.41.02-2.12,3.61-4.09,7.26-8.34,10.9-12.65.73-.05,1.47-.08,2.2-.1-.07,3.91-.12,7.82-.14,11.74,1.34-.02,2.67-.04,4-.06,0,.98,0,1.98-.01,2.96-1.33.01-2.67.03-4,.04,0,1.71-.01,3.41-.01,5.12-1.13,0-2.26,0-3.4,0,0-1.7,0-3.37.01-5.08-3.19.05-6.37.1-9.56.15ZM24.76,40.95c.02-2.09.04-4.19.07-6.28-1.88,2.16-3.76,4.3-5.63,6.42,1.85-.05,3.7-.09,5.56-.13Z"/><path class="i" d="M42.6,49.26c-5.24-.02-8.43-4.66-8.4-10.33.04-5.7,3.26-10.43,8.43-10.49,5.15-.04,8.38,4.65,8.4,10.42.01,5.73-3.23,10.4-8.44,10.4ZM42.62,31.47c-3.1.03-5,3.34-5.03,7.42-.02,4.07,1.88,7.32,5,7.32,3.13,0,5.05-3.26,5.05-7.36,0-4.1-1.91-7.39-5.02-7.37Z"/><path class="i" d="M58.29,28.61c2.88.09,5.09,2.45,5.13,5.37.04,2.85-2.13,5.07-5.04,5.04-2.91-.05-5.13-2.35-5.14-5.27-.01-2.96,2.17-5.23,5.05-5.14ZM58.37,36.56c1.39.03,2.48-1.06,2.46-2.65-.02-1.63-1.12-2.8-2.51-2.84-1.33-.04-2.44,1.1-2.43,2.72,0,1.62,1.13,2.74,2.48,2.77ZM69.09,29.39c.83.05,1.67.1,2.5.15-3.37,6.24-6.87,12.75-10.43,19.39-.84,0-1.68,0-2.52,0,3.56-6.67,7.07-13.24,10.45-19.55ZM72.2,39.2c2.9.1,5.12,2.33,5.14,5.12.02,2.77-2.17,4.91-5.08,4.92-2.9.02-5.12-2.2-5.14-5.08,0-2.9,2.18-5.07,5.08-4.96ZM72.26,46.86c1.39,0,2.49-1.05,2.48-2.59,0-1.57-1.12-2.68-2.51-2.72-1.35-.04-2.45,1.06-2.45,2.65,0,1.56,1.13,2.66,2.48,2.66Z"/><path class="i" d="M26.09,62.02c.05,4.29-1.93,6.41-5.49,6.17-3.76-.26-5.24-2.9-5.3-5.18-.02-.56.16-1.46.48-1.93.77.05,1.55.07,2.32.11-.32.63-.44,1.42-.43,1.8.03,1.24.88,2.92,2.86,3.04,2.19.12,3.11-1.37,3.07-4.09-.04-2.57-.07-5.13-.08-7.71.83.01,1.67.03,2.5.04.01,2.59.04,5.17.07,7.76Z"/><path class="i" d="M40.24,54.39c0,3,.01,5.99.03,8.99.01,3.67-2.49,5.56-5.45,5.48-2.98-.08-5.52-2.11-5.56-5.71-.04-2.95-.06-5.9-.08-8.85.83,0,1.67.02,2.5.03.01,2.97.04,5.92.07,8.89.03,2.21,1.42,3.35,3.05,3.4,1.61.04,2.99-1.03,2.98-3.27-.02-2.98-.03-5.97-.04-8.97.83,0,1.67,0,2.5.01Z"/><path class="i" d="M46.1,68.8c-.83,0-1.65,0-2.48,0-.02-4.79-.02-9.59-.03-14.39.83,0,1.67,0,2.5,0,0,4.8,0,9.6,0,14.4Z"/><path class="i" d="M56.15,54.15c2.07,0,3.43.65,4.7,1.63-.34.66-.67,1.31-1.01,1.96-.95-.72-2.22-1.28-3.68-1.26-3.11.02-4.92,2.31-4.93,5.11,0,2.78,1.78,5.06,4.87,4.99,1.45-.03,2.73-.62,3.68-1.4.32.65.64,1.3.97,1.94-1.28,1.04-2.64,1.73-4.69,1.79-4.58.11-7.38-3.31-7.38-7.31,0-4.02,2.84-7.41,7.47-7.45Z"/><path class="i" d="M62.96,68.45c.08-4.71.13-9.44.15-14.14,2.97-.03,5.92-.08,8.88-.13,0,.68-.01,1.35-.02,2.03-2.12.05-4.25.1-6.38.14,0,1.36-.02,2.72-.04,4.08,1.85-.05,3.7-.11,5.55-.18-.01.67-.02,1.35-.03,2.02-1.85.07-3.7.16-5.54.21-.02,1.27-.04,2.55-.06,3.82,2.12-.09,4.23-.19,6.35-.32-.02.68-.03,1.34-.05,2.01-2.94.19-5.87.34-8.81.47Z"/></g><g id="f"><path class="h" d="M429.19,18.9c-21.84.44-43.69.44-65.54,0-8.76-.17-15.85,6.7-15.85,15.46v28.44c0,8.75,7.1,16.08,15.85,16.25,21.84.44,43.69.44,65.54,0,8.76-.17,15.85-7.49,15.85-16.25v-28.44c0-8.76-7.1-15.63-15.85-15.46Z"/><path class="i" d="M429.1,75.68c-21.78.43-43.58.43-65.36,0-7.01-.14-12.68-5.98-12.68-12.99v-12.11c0-2.92,2.36-5.22,5.28-5.15,26.72.65,53.44.65,80.16,0,2.92-.07,5.29,2.23,5.28,5.15v12.11c0,7.01-5.67,12.84-12.68,12.99Z"/><path class="i" d="M367.21,38.97s0,.03,0,.04c.81-.08,2.64-.06,2.85-.06,1.43.02,2.87.05,4.3.06v2.17c-3.6-.05-7.21-.11-10.81-.18-.1-.55-.2-1.11-.3-1.67,1.98-1.76,3.96-3.53,5.94-5.3,1.06-.9,2.04-2.03,2.04-3.31,0-1.54-1.06-2.47-2.72-2.49-2.21-.04-2.77,1.35-2.77,2.33-.87-.02-1.75-.03-2.62-.05,0-1.81,1.28-4.63,5.38-4.56,3.21.06,5.32,1.92,5.32,4.78,0,2.3-1.49,3.81-2.89,5.02-1.24,1.06-2.48,2.13-3.72,3.19Z"/><path class="i" d="M382.8,41.52c-4.07-.04-6.53-3.52-6.53-7.75,0-4.25,2.47-7.65,6.53-7.61,4.04.03,6.55,3.46,6.55,7.72,0,4.23-2.51,7.68-6.55,7.64ZM382.8,28.39c-2.43-.02-3.89,2.39-3.9,5.41,0,3.02,1.47,5.45,3.9,5.46,2.43.02,3.92-2.37,3.92-5.4,0-3.02-1.49-5.45-3.92-5.48Z"/><path class="i" d="M397.91,41.57c-4.06,0-6.54-3.46-6.53-7.69,0-4.25,2.47-7.67,6.53-7.67,4.04,0,6.56,3.4,6.55,7.66,0,4.23-2.51,7.7-6.55,7.7ZM397.91,28.44c-2.43,0-3.89,2.43-3.9,5.45,0,3.02,1.47,5.43,3.9,5.43,2.43,0,3.92-2.41,3.92-5.44,0-3.02-1.49-5.44-3.92-5.44Z"/><path class="i" d="M414,35.31c0-1.87-.74-2.85-2-2.83-1.19,0-2.36.94-2.43,3.3v5.51c-.87,0-1.75.01-2.62.02v-10.77c.87,0,1.75-.01,2.62-.02v1.81c.57-1.32,1.79-2.06,3.17-2.07,1.34-.02,2.66.5,3.36,1.98.85-1.73,2.36-2.05,3.53-2.07,2.79-.04,4,1.88,4,4.98v5.96c-.87.01-1.75.03-2.62.04,0-1.98,0-3.96,0-5.94,0-1.87-.75-2.84-2-2.82-1.19.02-2.36.94-2.43,3.31v5.51c-.87.01-1.73.02-2.6.03v-5.94Z"/><path class="i" d="M426.5,41.06c0-5.13,0-10.26,0-15.39.87-.02,1.75-.03,2.62-.05v15.39c-.87.02-1.75.03-2.62.05Z"/><path class="h" d="M358.96,61.21s.04,0,.04,0c.7-1.34,2.3-1.91,3.7-1.88,2.72.06,5.36,1.99,5.36,5.1,0,2.92-2.3,5-5.64,4.94-3.81-.08-6.09-3.12-6.09-7.48,0-4.45,2.24-7.97,6.45-7.88,1.96.04,3.66.84,4.66,2-.55.5-1.11.99-1.66,1.48-.78-.88-2.07-1.16-2.94-1.18-2-.04-3.81,1.81-3.89,4.89ZM359.23,64.18c0,1.58,1.3,2.88,3.11,2.92,1.68.04,3.07-1.08,3.07-2.73,0-1.68-1.28-2.83-3.04-2.87-1.89-.04-3.13,1.15-3.13,2.68Z"/><path class="h" d="M371.75,66.14c1,.02,1.79.77,1.79,1.75,0,.96-.79,1.67-1.79,1.66-1.02-.02-1.79-.75-1.79-1.71,0-.98.76-1.71,1.79-1.7Z"/><path class="h" d="M374.92,54.46c3.64.05,7.28.08,10.92.11,0,.57,0,1.13,0,1.7-2.37,4.38-4.74,8.76-7.11,13.13-.99-.01-1.97-.02-2.96-.03,2.35-4.21,4.7-8.42,7.04-12.63-2.63-.02-5.26-.05-7.9-.08v-2.19Z"/><path class="h" d="M392.12,60.72v-2c.53,0,1.06,0,1.6,0v-.66c0-3.51,2.55-4.16,5.23-4.17,1.6,0,3.39.4,4.92,1.39v14.19c-.87,0-1.75,0-2.62,0,0-4.3,0-8.6,0-12.9-.87-.46-2.02-.53-2.47-.52-1.17,0-2.4.26-2.41,1.92v.75c.87,0,1.75,0,2.62,0,0,.67,0,1.33,0,2-.87,0-1.75,0-2.62,0v8.77c-.89,0-1.77,0-2.66,0v-8.77c-.53,0-1.07,0-1.6,0Z"/><path class="h" d="M417.36,58.36c3.15-.04,5.85,2.45,5.85,5.53,0,3.11-2.7,5.67-5.85,5.7-3.11.04-5.83-2.43-5.83-5.56,0-3.1,2.72-5.64,5.83-5.68ZM417.36,67.36c1.83-.02,3.21-1.53,3.21-3.43,0-1.87-1.38-3.37-3.21-3.34-1.81.02-3.19,1.53-3.19,3.42,0,1.89,1.39,3.37,3.19,3.35Z"/><path class="h" d="M435.2,69.04c-3.6.09-7.21.16-10.81.22,0-.53,0-1.05,0-1.57,2.22-2.41,4.44-4.83,6.66-7.26-2.09.04-4.19.08-6.28.12v-2.06c3.34-.06,6.68-.13,10.02-.2v1.57c-2.23,2.41-4.43,4.85-6.66,7.25,2.36-.05,4.71-.1,7.06-.15v2.08Z"/></g><g id="g"><path class="i" d="M265.63,48.62c0,24.94-20.29,45.23-45.23,45.23s-45.23-20.29-45.23-45.23S195.46,3.39,220.4,3.39s45.23,20.29,45.23,45.23Z"/><path class="h" d="M220.4,0c-26.8,0-48.62,21.82-48.62,48.62s21.82,48.62,48.62,48.62,48.62-21.82,48.62-48.62S247.2,0,220.4,0ZM220.4,93.85c-24.94,0-45.23-20.29-45.23-45.23S195.46,3.39,220.4,3.39s45.23,20.29,45.23,45.23-20.29,45.23-45.23,45.23Z"/><path class="h" d="M256.57,47c3.7.93,6,4.58,5.39,8.34-3.26,19.96-20.75,35.39-41.57,35.39s-38.31-15.43-41.57-35.39c-.62-3.8,1.76-7.44,5.5-8.37,9.67-2.42,22.19-4.52,36.82-4.45,14.02.07,26.05,2.12,35.44,4.48Z"/><path class="i" d="M190.68,52.92c3.02-.65,5.91,1.18,6.36,3.93.46,2.76-1.48,5.39-4.24,5.98-2.76.6-5.62-1.01-6.33-3.71-.72-2.71,1.19-5.55,4.21-6.19ZM192.46,61.23c1.81-.39,3.05-2.1,2.7-4.05-.35-1.95-2.22-3.08-4.14-2.67-1.92.41-3.16,2.21-2.68,4.14.47,1.93,2.31,2.97,4.12,2.58Z"/><path class="i" d="M204.39,57c.3,1.02.98,2.2,2.04,2.09.43-.04.81-.27,1.06-.55.25.39.51.78.76,1.17-.52.54-1.08.86-1.9.95-2.31.26-3.37-2.26-3.63-3.36-.57.07-1.14.15-1.7.23.17,1.19.34,2.38.51,3.57-.6.09-1.2.18-1.8.27-.51-3.23-1.02-6.47-1.53-9.7,1.52-.24,3.04-.45,4.56-.64,2.11-.26,3.46,1.1,3.62,2.77.14,1.43-.6,2.68-1.98,3.19ZM203.05,55.82c.97-.11,1.5-.86,1.39-1.82-.11-.95-.83-1.57-1.81-1.45-.77.1-1.54.2-2.3.31.16,1.09.31,2.17.47,3.26.75-.11,1.5-.21,2.25-.3Z"/><path class="i" d="M210.23,55.26c.14,1.83,1.54,3.3,3.76,3.19.76-.03,1.48-.22,2.09-.58-.02-.57-.03-1.14-.05-1.71-.91.03-1.81.06-2.72.11-.02-.48-.05-.95-.07-1.43,1.49-.08,2.99-.13,4.49-.15.02,1.28.04,2.56.07,3.85-1.37,1.24-2.8,1.5-3.75,1.55-3.03.14-5.47-1.91-5.73-4.68-.26-2.76,1.91-5.29,5.24-5.44,1.55-.07,2.76.29,3.89,1.05-.28.46-.57.91-.84,1.37-1.05-.62-1.95-.85-2.93-.81-2.37.11-3.57,1.92-3.44,3.69Z"/><path class="i" d="M218.48,59.79c1.24-3.29,2.57-6.56,4-9.81.68.01,1.35.03,2.02.05,1.28,3.32,2.45,6.65,3.53,10-.62-.04-1.24-.07-1.85-.1-.22-.65-.44-1.3-.67-1.95-1.47-.06-2.95-.1-4.42-.11-.25.64-.49,1.28-.74,1.92-.62,0-1.25,0-1.87,0ZM223.45,51.83c-.63,1.53-1.24,3.05-1.83,4.59,1.14.01,2.28.04,3.41.09-.51-1.56-1.04-3.12-1.58-4.67Z"/><path class="i" d="M231.82,53.67c-.19,2.2-.38,4.4-.57,6.6-.6-.05-1.2-.1-1.81-.14.24-3.26.47-6.53.71-9.79.49.03.98.07,1.47.11,1.57,2.33,3.06,4.69,4.45,7.07.26-2.18.53-4.35.79-6.53.65.08,1.29.16,1.94.25-.44,3.24-.88,6.49-1.32,9.73-.45-.06-.9-.12-1.35-.18-1.35-2.39-2.8-4.77-4.32-7.12Z"/><path class="i" d="M241.82,61.63c-.6-.1-1.2-.2-1.79-.29.5-3.23,1.01-6.47,1.51-9.7.64.1,1.29.2,1.93.31-.55,3.23-1.1,6.45-1.65,9.68Z"/><path class="i" d="M251.23,53.33c1.59.36,2.52,1.08,3.31,1.99-.36.37-.72.74-1.08,1.11-.6-.67-1.46-1.28-2.57-1.54-2.36-.53-4.05.73-4.41,2.6-.37,1.87.64,3.65,2.87,4.16,1.05.24,2.05.1,2.87-.24.13.5.26,1,.38,1.5-1.08.43-2.15.62-3.62.29-3.27-.74-4.87-3.38-4.39-6.08.48-2.69,3.09-4.61,6.65-3.8Z"/><path class="i" d="M206.57,71.13c.34,2.99-.96,4.67-3.52,5.06-2.69.43-4.05-1.14-4.38-2.79-.08-.4-.06-1.08.13-1.46.58-.11,1.15-.21,1.73-.31-.17.5-.17,1.08-.13,1.34.16.89.95,1.92,2.39,1.7,1.6-.24,2.15-1.41,1.9-3.31-.24-1.79-.48-3.59-.72-5.38.65-.09,1.3-.17,1.96-.25.21,1.8.42,3.6.63,5.39Z"/><path class="i" d="M217.12,64.96c.05,2.05.09,4.1.14,6.14.04,2.51-1.76,3.86-3.9,3.99-2.16.13-4.09-1.01-4.34-3.51-.2-2.04-.39-4.08-.59-6.12.65-.06,1.31-.12,1.96-.17.16,2.04.32,4.08.48,6.13.12,1.52,1.2,2.2,2.39,2.13,1.18-.07,2.18-.86,2.12-2.39-.08-2.05-.16-4.1-.24-6.14.66-.03,1.31-.05,1.97-.06Z"/><path class="i" d="M221.57,74.77c-.6,0-1.2-.01-1.81-.01,0-3.27,0-6.55,0-9.82.66,0,1.31,0,1.97.02-.06,3.27-.11,6.55-.16,9.82Z"/><path class="i" d="M229.65,65.19c1.63.14,2.66.72,3.57,1.51-.31.42-.62.83-.92,1.25-.68-.58-1.63-1.07-2.77-1.17-2.42-.2-3.91,1.3-4,3.2-.09,1.91,1.16,3.51,3.42,3.7,1.07.09,2.04-.2,2.79-.63.2.48.39.96.58,1.43-1,.57-2.03.92-3.51.79-3.31-.27-5.28-2.64-5.2-5.38.07-2.73,2.38-5.02,6.05-4.72Z"/><path class="i" d="M233.82,75.67c.42-3.25.84-6.49,1.27-9.74,2.32.3,4.63.67,6.93,1.11-.09.47-.18.95-.27,1.42-1.63-.31-3.27-.59-4.92-.83-.14.94-.28,1.88-.41,2.82,1.4.21,2.79.44,4.18.7-.09.47-.17.94-.26,1.41-1.37-.26-2.75-.48-4.13-.69-.13.88-.26,1.76-.39,2.64,1.55.23,3.09.49,4.63.78-.09.47-.18.94-.27,1.41-2.11-.4-4.23-.74-6.36-1.02Z"/><path class="h" d="M188.32,26.68c1.79-1.22,3.63-2.42,5.5-3.57.56-.1,1.11-.19,1.67-.28.81,5.14,1.62,10.29,2.44,15.43-.93.15-1.85.31-2.77.47-.73-4.06-1.46-8.11-2.18-12.17-1.17.69-2.32,1.4-3.45,2.12-.4-.67-.79-1.34-1.2-2.01Z"/><path class="h" d="M207.53,37.31c-4.25.39-7.35-2.79-7.99-7.19-.65-4.4,1.76-8.42,6.58-8.86,4.81-.42,7.9,3.1,8.03,7.55.13,4.45-2.39,8.12-6.62,8.49ZM206.32,23.59c-2.83.25-4.23,3.01-3.84,6.14.39,3.15,2.26,5.44,4.84,5.21,2.59-.23,4.04-2.83,3.88-5.99-.17-3.16-2.05-5.62-4.88-5.37Z"/><path class="h" d="M223.52,36.8c-4.26-.11-6.96-3.61-7.09-8.06-.14-4.45,2.7-8.16,7.53-8.05,4.81.13,7.48,3.98,7.1,8.42-.38,4.44-3.3,7.79-7.54,7.68ZM223.89,23.04c-2.83-.07-4.54,2.5-4.52,5.66.02,3.17,1.61,5.67,4.2,5.73,2.59.07,4.33-2.34,4.53-5.51.2-3.16-1.38-5.82-4.22-5.89Z"/><path class="h" d="M238.4,21.74c2.65.33,4.37,2.4,4.01,4.67-.35,2.23-2.5,3.69-5,3.4-2.49-.3-4.25-2.24-4.06-4.48.2-2.29,2.39-3.9,5.05-3.58ZM237.65,27.9c1.22.15,2.29-.58,2.46-1.82.18-1.26-.68-2.28-1.94-2.43-1.21-.14-2.32.64-2.45,1.9-.13,1.25.76,2.22,1.93,2.35ZM248.22,23.49c.76.14,1.51.29,2.27.44-4.24,4.46-8.16,9.09-11.77,13.85-.68-.09-1.37-.18-2.06-.27,3.53-4.82,7.38-9.5,11.55-14.02ZM249.31,31.62c2.49.51,3.95,2.67,3.41,4.9-.54,2.21-2.7,3.51-5.03,3.03-2.33-.47-3.83-2.51-3.45-4.76.38-2.27,2.58-3.68,5.08-3.17ZM248.07,37.67c1.14.24,2.22-.42,2.49-1.64.28-1.24-.46-2.31-1.63-2.56-1.13-.23-2.25.46-2.48,1.72-.23,1.23.53,2.26,1.62,2.48Z"/></g></g></g></svg>